<svg width="95" height="85" viewBox="0 0 95 85" fill="none" xmlns="http://www.w3.org/2000/svg">
<path d="M14.8913 27.7275C19.323 24.2838 22.9995 26.6588 27.9063 32.3398C28.4573 32.981 29.1983 32.2305 29.621 31.8648C30.039 31.4943 36.5133 25.666 36.8315 25.4C37.145 25.1198 37.525 24.5972 37.0263 24.013C35.8249 22.5269 34.6483 21.021 33.497 19.4958C24.909 8.262 56.9905 0.643001 52.0648 0.524251C49.5568 0.457751 39.4963 0.339001 37.9905 0.505251C31.8963 1.1465 24.244 6.84175 20.3918 9.497C15.352 12.9455 13.471 14.969 13.1623 15.2493C11.7373 16.4938 12.9343 19.3675 10.3503 21.6333C7.61901 24.0225 5.91376 22.2128 4.33201 23.5998C3.54826 24.2933 1.35376 25.9368 0.726763 26.483C0.095013 27.0387 -0.018987 27.9745 0.627013 28.7203C0.627013 28.7203 6.63101 35.3513 7.13451 35.9403C7.63326 36.5198 8.99176 37.0233 9.82776 36.2775C10.6685 35.5365 12.8298 33.6508 13.1908 33.3183C13.5613 33.0048 12.9533 29.2285 14.8913 27.7275ZM42.0043 30.1833C41.4343 29.523 40.7265 29.504 40.1185 30.0455L33.307 35.9925C33.044 36.2311 32.8838 36.5624 32.8599 36.9166C32.8359 37.2709 32.9502 37.6207 33.1788 37.8925L72.5753 82.7278C73.4968 83.787 75.0928 83.8962 76.1425 82.9795L80.75 79.1178C81.2572 78.6712 81.5676 78.0425 81.6138 77.3683C81.6601 76.6941 81.4384 76.0289 80.997 75.5173L42.0043 30.1833ZM94.5345 11.1025C94.183 8.756 92.967 9.24525 92.3353 10.238C91.7035 11.2403 88.9105 15.4725 87.761 17.3915C86.621 19.2915 83.809 23.0488 78.5745 19.339C73.1215 15.4868 75.0168 12.7983 75.9668 10.9885C76.9215 9.16925 79.8523 4.06775 80.275 3.436C80.6978 2.79475 80.2038 0.932751 78.5128 1.71175C76.817 2.49075 66.5285 6.5805 65.1035 12.4468C63.6453 18.4128 66.3243 23.747 61.066 29.0433L54.6868 35.6933L61.0945 43.1318L68.951 35.6742C70.8225 33.7933 74.822 31.9645 78.4415 32.791C86.1983 34.5438 90.4305 31.632 92.9813 26.8155C95.2708 22.512 94.8908 13.449 94.5345 11.1025ZM13.0103 76.0017C12.5351 76.4804 12.2685 77.1275 12.2685 77.802C12.2685 78.4764 12.5351 79.1236 13.0103 79.6023L17.5275 84.0197C18.5155 85.0125 20.083 84.5945 21.071 83.6018L44.3793 60.6878L37.24 52.5462L13.0103 76.0017Z" fill="black"/>
</svg>
