<svg width="20" height="20" viewBox="0 0 20 20" fill="none" xmlns="http://www.w3.org/2000/svg">
<path d="M19.054 16.5604L14.5192 12.0256C15.2262 10.8653 15.5991 9.53232 15.5968 8.1736C15.5968 4.0732 12.0436 0.521202 7.94322 0.521202C6.96835 0.521045 6.00299 0.712944 5.1023 1.08594C4.2016 1.45893 3.38321 2.00572 2.69387 2.69506C2.00453 3.38439 1.45775 4.20278 1.08476 5.10348C0.711761 6.00418 0.519862 6.96953 0.52002 7.9444C0.52002 12.0436 4.07322 15.5968 8.17242 15.5968C9.48636 15.598 10.7768 15.2483 11.9104 14.584L16.4692 19.1452C16.6836 19.359 16.974 19.4791 17.2768 19.4791C17.5796 19.4791 17.87 19.359 18.0844 19.1452L19.216 18.0136C19.6612 17.5684 19.4992 17.0056 19.054 16.5604ZM2.80482 7.9444C2.80466 7.26952 2.93745 6.60121 3.19561 5.97765C3.45377 5.3541 3.83224 4.7875 4.3094 4.31023C4.78656 3.83296 5.35306 3.45436 5.97656 3.19605C6.60006 2.93775 7.26833 2.8048 7.94322 2.8048C10.7824 2.8048 13.312 5.3332 13.312 8.1736C13.3117 9.53661 12.7701 10.8437 11.8063 11.8075C10.8425 12.7713 9.53543 13.3129 8.17242 13.3132C5.33322 13.312 2.80482 10.7824 2.80482 7.9444Z" fill="black"/>
</svg>
